<?xml version="1.0" standalone="no"?><!DOCTYPE svg PUBLIC "-//W3C//DTD SVG 1.1//EN" "http://www.w3.org/Graphics/SVG/1.1/DTD/svg11.dtd"><svg t="1730213176364" class="icon" viewBox="0 0 1024 1024" version="1.1" xmlns="http://www.w3.org/2000/svg" p-id="5057" xmlns:xlink="http://www.w3.org/1999/xlink" width="200" height="200"><path d="M448.103484 804.23813l99.193885-198.688814 221.568132 13.396443-344.243423-225.481699 23.481406 410.77407z m28.749669 67.283258c-10.68705 21.223578-36.426283 29.953844-57.800382 19.567837-13.99853-6.773482-23.180362-20.621491-24.083493-36.125239l-27.394973-483.175069c-0.903131-16.406879 7.37557-31.760106 21.675144-39.888285 14.149052-8.128179 31.760106-7.676613 45.457592 1.354697l404.602675 265.219462c9.633397 6.321917 16.256357 16.105836 18.664707 27.394972 2.257827 11.289137 0 23.02984-6.321917 32.512715-8.579744 12.794355-23.330883 20.169925-38.68411 19.266794l-232.104659-14.149052L476.853153 871.521388z m201.849772-523.213877c2.107306 15.353227-8.579744 29.351757-23.932971 31.459063-15.353227 2.107306-29.351757-8.579744-31.459062-23.932971-3.462002-25.588711-11.891224-50.274291-24.836101-72.551522-55.392033-95.882405-178.669411-128.39512-275.605469-72.400999-96.785536 55.843598-130.351904 178.970454-75.110392 274.852859 13.095399 22.578274 30.104366 42.146112 50.424812 57.800382 12.192268 9.482875 14.450096 26.943407 4.967221 39.135676-9.482875 12.192268-26.943407 14.450096-39.135676 4.96722-26.190798-20.169925-48.166985-45.457592-64.573864-74.05674-70.745259-122.67529-27.846538-279.970601 95.430839-351.167426 123.578421-71.196825 281.024254-29.803322 351.769514 92.871968 16.858445 28.900191 27.696016 60.359253 32.061149 93.02249z m0 0" p-id="5058" fill="#999999"></path></svg>
