<?xml version="1.0" standalone="no"?><!DOCTYPE svg PUBLIC "-//W3C//DTD SVG 1.1//EN" "http://www.w3.org/Graphics/SVG/1.1/DTD/svg11.dtd"><svg t="1731170406658" class="icon" viewBox="0 0 1024 1024" version="1.1" xmlns="http://www.w3.org/2000/svg" p-id="4280" xmlns:xlink="http://www.w3.org/1999/xlink" width="32" height="32"><path d="M272.170667 554.666667h10.368a116.394667 116.394667 0 0 0 224.298666 0h10.368a115.584 115.584 0 0 0 223.104 0h10.24a118.442667 118.442667 0 0 0 112.810667 85.333333 115.2 115.2 0 0 0 32.64-4.736v248.789333a60.202667 60.202667 0 0 1-50.389333 54.613334h-667.221334A60.202667 60.202667 0 0 1 128 884.053333V635.733333a111.829333 111.829333 0 0 0 31.317333 4.266667 118.656 118.656 0 0 0 112.853334-85.333333z m626.005333-341.333334L981.333333 433.877333a118.016 118.016 0 1 1-235.989333 0 116.736 116.736 0 1 1-233.344 0A119.466667 119.466667 0 0 1 393.984 554.666667a119.466667 119.466667 0 0 1-116.650667-120.789334A119.466667 119.466667 0 0 1 159.317333 554.666667 119.466667 119.466667 0 0 1 42.666667 433.877333L123.136 213.333333z m-729.045333-42.666666A41.173333 41.173333 0 0 1 128 128a41.173333 41.173333 0 0 1 41.130667-42.666667h685.738666A41.173333 41.173333 0 0 1 896 128a41.173333 41.173333 0 0 1-41.130667 42.666667z" p-id="4281" fill="#bbbbbb"></path></svg>
